<?xml version="1.0" standalone="no"?>
<!DOCTYPE svg PUBLIC "-//W3C//DTD SVG 1.1//EN" "http://www.w3.org/Graphics/SVG/1.1/DTD/svg11.dtd">
<svg xmlns="http://www.w3.org/2000/svg" xmlns:xlink="http://www.w3.org/1999/xlink" width="375" zoomAndPan="magnify" viewBox="0 0 375 374.999991" height="375" preserveAspectRatio="xMidYMid meet" version="1.0"><defs><g/><clipPath id="be21beccb5"><path d="M 62.023438 68 L 313.273438 68 L 313.273438 306 L 62.023438 306 Z M 62.023438 68 " clip-rule="nonzero"/></clipPath><clipPath id="e7ad0d16bf"><path d="M 91.046875 244.285156 L 283.796875 244.285156 L 283.796875 284.035156 L 91.046875 284.035156 Z M 91.046875 244.285156 " clip-rule="nonzero"/></clipPath><clipPath id="b16c8a8a17"><path d="M 139.539062 148.230469 L 235.539062 148.230469 L 235.539062 244.230469 L 139.539062 244.230469 Z M 139.539062 148.230469 " clip-rule="nonzero"/></clipPath></defs><g clip-path="url(#be21beccb5)"><path fill="#ffca1d" d="M 248.800781 304.851562 C 288.71875 282.683594 313.480469 240.476562 313.480469 194.730469 C 313.480469 125.253906 257.210938 68.839844 187.910156 68.839844 C 118.609375 68.839844 62.335938 125.253906 62.335938 194.730469 C 62.335938 241.308594 87.980469 284.035156 128.988281 305.894531 L 158.476562 250.3125 C 137.96875 239.382812 125.148438 217.996094 125.148438 194.730469 C 125.148438 159.96875 153.285156 131.761719 187.960938 131.761719 C 222.636719 131.761719 250.773438 159.96875 250.773438 194.730469 C 250.773438 217.628906 238.367188 238.707031 218.433594 249.792969 Z M 248.800781 304.851562 " fill-opacity="1" fill-rule="evenodd"/></g><g fill="#000000" fill-opacity="1"><g transform="translate(101.642104, 194.512369)"><g><path d="M 1.125 -7.976562 C 1.488281 -11.089844 0.171875 -13.773438 -2.363281 -15.078125 L -3.664062 -12.484375 C -2.113281 -11.675781 -1.335938 -10.085938 -1.546875 -8.289062 C -1.824219 -5.878906 -3.734375 -4.226562 -6.558594 -4.558594 C -9.382812 -4.886719 -10.851562 -6.929688 -10.570312 -9.335938 C -10.359375 -11.136719 -9.25 -12.507812 -7.554688 -12.9375 L -8.222656 -15.761719 C -10.992188 -15.070312 -12.875 -12.761719 -13.238281 -9.648438 C -13.71875 -5.539062 -11.285156 -2.175781 -6.894531 -1.664062 C -2.503906 -1.152344 0.644531 -3.867188 1.125 -7.976562 Z M 1.125 -7.976562 "/></g></g></g><g fill="#000000" fill-opacity="1"><g transform="translate(104.290255, 175.690675)"><g><path d="M 3.71875 -10.605469 L 4.710938 -13.425781 L -10.285156 -13.195312 L -11.464844 -9.820312 L 0.0976562 -0.277344 L 1.085938 -3.097656 L -1.3125 -5.023438 L 0.644531 -10.597656 Z M -3.335938 -6.640625 L -8.273438 -10.601562 L -1.945312 -10.601562 Z M -3.335938 -6.640625 "/></g></g></g><g fill="#000000" fill-opacity="1"><g transform="translate(110.908107, 158.533301)"><g><path d="M -4.746094 -14.5625 L -6.960938 -15.871094 L -11.183594 -8.730469 L 0.925781 -1.566406 L 2.425781 -4.097656 L -2.539062 -7.035156 L -0.183594 -11.015625 L -2.371094 -12.308594 L -4.726562 -8.328125 L -7.472656 -9.953125 Z M -4.746094 -14.5625 "/></g></g></g><g fill="#000000" fill-opacity="1"><g transform="translate(118.730231, 145.975031)"><g><path d="M -2.175781 -15.070312 L -4.121094 -16.75 L -9.457031 -10.578125 L 1.191406 -1.378906 L 6.523438 -7.554688 L 4.570312 -9.238281 L 1.160156 -5.289062 L -1.25 -7.371094 L 1.773438 -10.871094 L -0.148438 -12.535156 L -3.171875 -9.035156 L -5.589844 -11.121094 Z M -2.175781 -15.070312 "/></g></g></g><g fill="#000000" fill-opacity="1"><g transform="translate(129.168061, 134.702522)"><g/></g></g><g fill="#000000" fill-opacity="1"><g transform="translate(136.141938, 128.593235)"><g><path d="M 7.003906 -3.980469 C 9.691406 -5.59375 11.015625 -8.273438 10.5 -11.074219 L 7.652344 -10.523438 C 7.960938 -8.800781 7.171875 -7.214844 5.621094 -6.28125 C 3.542969 -5.035156 1.070312 -5.539062 -0.394531 -7.976562 C -1.855469 -10.414062 -1.136719 -12.824219 0.945312 -14.070312 C 2.496094 -15.003906 4.261719 -14.960938 5.636719 -13.878906 L 7.460938 -16.132812 C 5.230469 -17.90625 2.25 -17.988281 -0.441406 -16.375 C -3.988281 -14.246094 -5.164062 -10.265625 -2.890625 -6.476562 C -0.613281 -2.6875 3.457031 -1.847656 7.003906 -3.980469 Z M 7.003906 -3.980469 "/></g></g></g><g fill="#000000" fill-opacity="1"><g transform="translate(152.726984, 119.232937)"><g><path d="M 8.761719 -2.964844 L 12.035156 -4.074219 L 6.734375 -8.046875 C 7.027344 -8.246094 7.265625 -8.453125 7.46875 -8.675781 C 8.574219 -9.839844 8.667969 -11.351562 8.105469 -13.023438 C 7.566406 -14.609375 6.605469 -15.691406 5.070312 -15.941406 C 4.257812 -16.058594 3.292969 -15.96875 1.59375 -15.394531 L -2.785156 -13.910156 L 1.726562 -0.582031 L 4.492188 -1.519531 L 2.828125 -6.4375 L 4 -6.832031 Z M 0.765625 -12.535156 L 1.992188 -12.949219 C 3.0625 -13.308594 3.683594 -13.449219 4.214844 -13.269531 C 4.71875 -13.089844 5.125 -12.652344 5.378906 -11.90625 C 5.644531 -11.121094 5.589844 -10.515625 5.246094 -10.050781 C 4.933594 -9.628906 4.371094 -9.382812 3.316406 -9.027344 L 2.089844 -8.613281 Z M 0.765625 -12.535156 "/></g></g></g><g fill="#000000" fill-opacity="1"><g transform="translate(169.111226, 114.189585)"><g><path d="M 8.347656 -12.734375 L 8.003906 -15.28125 L -0.0820312 -14.1875 L 1.804688 -0.246094 L 9.890625 -1.339844 L 9.542969 -3.894531 L 4.371094 -3.195312 L 3.945312 -6.351562 L 8.527344 -6.972656 L 8.1875 -9.488281 L 3.605469 -8.871094 L 3.175781 -12.035156 Z M 8.347656 -12.734375 "/></g></g></g><g fill="#000000" fill-opacity="1"><g transform="translate(184.059052, 112.389158)"><g><path d="M 11.214844 0.722656 L 14.195312 0.914062 L 9.933594 -13.460938 L 6.367188 -13.691406 L 0.292969 0.0195312 L 3.273438 0.210938 L 4.480469 -2.617188 L 10.378906 -2.238281 Z M 5.492188 -5.003906 L 7.976562 -10.824219 L 9.683594 -4.734375 Z M 5.492188 -5.003906 "/></g></g></g><g fill="#000000" fill-opacity="1"><g transform="translate(202.162578, 113.714842)"><g><path d="M 17.105469 5.429688 L 20.257812 -8.332031 L 16.285156 -9.59375 L 10.71875 -2.09375 L 10.53125 -11.417969 L 6.558594 -12.679688 L 1.179688 0.375 L 3.964844 1.257812 L 8.0625 -8.566406 L 8.25 2.621094 L 10.050781 3.191406 L 16.65625 -5.835938 L 14.328125 4.550781 Z M 17.105469 5.429688 "/></g></g></g><g fill="#000000" fill-opacity="1"><g transform="translate(223.64824, 121.386728)"><g><path d="M 4.136719 2.476562 L 6.648438 3.980469 L 10.101562 -1.78125 L 17.847656 -5.714844 L 15.082031 -7.371094 L 10.15625 -4.757812 L 10.144531 -10.328125 L 7.371094 -11.988281 L 7.566406 -3.253906 Z M 4.136719 2.476562 "/></g></g></g><g fill="#000000" fill-opacity="1"><g transform="translate(237.631497, 130.464954)"><g/></g></g><g fill="#000000" fill-opacity="1"><g transform="translate(244.816331, 136.285456)"><g><path d="M 18.125 -0.347656 L 10.484375 6.105469 L 14.078125 -5.136719 L 11.925781 -7.6875 L 1.175781 1.390625 L 3.054688 3.617188 L 10.738281 -2.875 L 7.074219 8.375 L 9.253906 10.957031 L 20.003906 1.878906 Z M 18.125 -0.347656 "/></g></g></g><g fill="#000000" fill-opacity="1"><g transform="translate(257.225099, 151.805087)"><g><path d="M 3.058594 6.332031 C 4.480469 9.085938 6.996094 10.511719 10.144531 8.882812 L 18.265625 4.683594 L 16.921875 2.089844 L 9.15625 6.105469 C 7.261719 7.085938 6.015625 6.4375 5.347656 5.148438 C 4.6875 3.867188 4.871094 2.488281 6.777344 1.503906 L 14.542969 -2.511719 L 13.199219 -5.105469 L 5.078125 -0.90625 C 1.929688 0.722656 1.640625 3.59375 3.058594 6.332031 Z M 3.058594 6.332031 "/></g></g></g><g fill="#000000" fill-opacity="1"><g transform="translate(264.99327, 168.021379)"><g><path d="M 16.3125 5.617188 L 13.613281 -3.585938 L 11.144531 -2.863281 L 12.089844 0.359375 L 1.054688 3.597656 L 1.871094 6.371094 L 12.90625 3.136719 L 13.84375 6.339844 Z M 16.3125 5.617188 "/></g></g></g><g fill="#000000" fill-opacity="1"><g transform="translate(268.780328, 181.856398)"><g><path d="M 0.464844 6.492188 C 0.773438 9.542969 2.515625 11.558594 5.179688 11.289062 C 8.019531 11 8.570312 8.425781 8.992188 6.242188 C 9.304688 4.605469 9.496094 3.195312 10.667969 3.074219 C 11.742188 2.964844 12.339844 3.914062 12.457031 5.085938 C 12.589844 6.402344 12.078125 7.40625 10.773438 7.976562 L 11.691406 10.546875 C 14.316406 9.714844 15.0625 7.132812 14.8125 4.671875 C 14.527344 1.863281 12.839844 -0.121094 10.261719 0.140625 C 7.644531 0.40625 7.125 2.683594 6.691406 4.800781 C 6.34375 6.558594 6.09375 8.152344 4.71875 8.300781 C 3.585938 8.425781 2.96875 7.539062 2.84375 6.296875 C 2.695312 4.835938 3.328125 3.675781 4.894531 3.105469 L 3.945312 0.292969 C 1.363281 0.988281 0.15625 3.476562 0.464844 6.492188 Z M 0.464844 6.492188 "/></g></g></g><g clip-path="url(#e7ad0d16bf)"><path fill="#282120" d="M 187.421875 293.808594 C 134.261719 293.808594 91.046875 250.59375 91.046875 197.433594 C 91.046875 144.273438 134.300781 101.058594 187.421875 101.058594 C 213.175781 101.058594 237.382812 111.082031 255.578125 129.277344 C 273.773438 147.472656 283.796875 171.683594 283.796875 197.433594 C 283.796875 250.59375 240.582031 293.808594 187.421875 293.808594 Z M 187.421875 107.34375 C 137.730469 107.34375 97.332031 147.742188 97.332031 197.433594 C 97.332031 247.125 137.730469 287.527344 187.421875 287.527344 C 237.113281 287.527344 277.515625 247.125 277.515625 197.433594 C 277.515625 173.378906 268.144531 150.75 251.144531 133.710938 C 234.144531 116.671875 211.476562 107.34375 187.421875 107.34375 Z M 187.421875 107.34375 " fill-opacity="1" fill-rule="nonzero"/></g><g clip-path="url(#b16c8a8a17)"><path fill="#ffca1d" d="M 187.546875 148.230469 C 161.03125 148.230469 139.539062 169.726562 139.539062 196.222656 C 139.539062 222.738281 161.03125 244.230469 187.546875 244.230469 C 214.042969 244.230469 235.539062 222.738281 235.539062 196.222656 C 235.539062 169.726562 214.042969 148.230469 187.546875 148.230469 Z M 186.523438 172.363281 C 192.3125 166.152344 193.101562 161.917969 191.175781 151.785156 C 195.976562 157.007812 197.425781 168.277344 191.910156 174.050781 C 186.980469 179.199219 184.964844 183.78125 186.523438 194.757812 C 182.195312 188.929688 179.960938 179.402344 186.523438 172.363281 Z M 177.871094 172.878906 C 181.902344 168.570312 182.453125 165.621094 181.117188 158.585938 C 184.433594 162.210938 185.441406 170.039062 181.609375 174.050781 C 178.203125 177.625 176.792969 180.792969 177.871094 188.417969 C 174.886719 184.367188 173.328125 177.75 177.871094 172.878906 Z M 196.433594 172.878906 C 200.449219 168.570312 200.996094 165.621094 199.679688 158.585938 C 202.996094 162.210938 204.003906 170.039062 200.171875 174.050781 C 196.746094 177.625 195.355469 180.792969 196.433594 188.417969 C 193.449219 184.367188 191.890625 177.75 196.433594 172.878906 Z M 173.878906 217.367188 C 172.027344 217.515625 171.148438 217.40625 169.589844 216.78125 C 168.050781 216.175781 166.546875 214.914062 165.046875 212.457031 C 164.605469 211.742188 164.257812 210.515625 164.148438 209.105469 C 164.074219 207.988281 164.167969 206.796875 164.550781 205.734375 C 164.898438 204.761719 165.503906 203.898438 166.4375 203.3125 C 167.117188 202.890625 167.996094 202.617188 169.132812 202.5625 C 169.609375 208.242188 171.347656 213.375 173.878906 217.367188 Z M 175.710938 219.789062 C 177.011719 221.34375 178.476562 222.644531 180.054688 223.652344 C 175.070312 223.398438 170.578125 223.507812 165.046875 222.976562 C 164 222.867188 163.691406 223.652344 164.515625 224.058594 C 168.269531 225.871094 172.46875 227.320312 176.679688 227.28125 L 198.523438 227.28125 C 202.738281 227.320312 206.953125 225.871094 210.710938 224.058594 C 211.535156 223.652344 211.222656 222.867188 210.179688 222.976562 C 204.644531 223.507812 200.136719 223.398438 195.28125 223.691406 C 201.894531 219.640625 206.511719 210.386719 206.511719 199.613281 C 206.511719 199.210938 206.496094 198.804688 206.496094 198.421875 L 169.058594 198.402344 C 169.039062 198.804688 169.039062 199.210938 169.039062 199.613281 L 169.039062 199.886719 C 167.484375 199.996094 166.089844 200.398438 165.046875 201.042969 C 163.542969 201.957031 162.589844 203.3125 162.039062 204.835938 C 161.527344 206.28125 161.378906 207.859375 161.492188 209.304688 C 161.617188 211.121094 162.132812 212.804688 162.773438 213.851562 C 164.625 216.875 166.566406 218.46875 168.601562 219.273438 C 170.652344 220.082031 173.457031 219.96875 175.617188 219.824219 " fill-opacity="1" fill-rule="evenodd"/></g><path fill="#ffca1d" d="M 208.988281 162.726562 L 207.6875 161.425781 L 208.988281 160.105469 Z M 210.304688 164.046875 L 208.988281 162.726562 L 210.304688 161.425781 Z M 211.605469 164.046875 L 210.304688 162.726562 L 211.605469 161.425781 Z M 208.988281 161.425781 L 210.304688 160.105469 L 211.605469 161.425781 Z M 209.921875 159.007812 C 211.589844 159.007812 212.964844 160.363281 212.964844 162.03125 C 212.964844 163.714844 211.589844 165.070312 209.921875 165.070312 C 208.234375 165.070312 206.878906 163.714844 206.878906 162.03125 C 206.878906 160.363281 208.234375 159.007812 209.921875 159.007812 Z M 209.921875 158.640625 C 211.789062 158.640625 213.3125 160.160156 213.3125 162.03125 C 213.3125 163.917969 211.789062 165.4375 209.921875 165.4375 C 208.050781 165.4375 206.53125 163.917969 206.53125 162.03125 C 206.53125 160.160156 208.050781 158.640625 209.921875 158.640625 Z M 209.921875 158.640625 " fill-opacity="1" fill-rule="evenodd"/><g fill="#ffca1d" fill-opacity="1"><g transform="translate(139.701397, 300.485517)"><g><path d="M 6.375 -2.46875 C 6.375 -1.71875 6.015625 -1.09375 5.296875 -0.59375 C 4.585938 -0.09375 3.757812 0.15625 2.8125 0.15625 C 2.082031 0.15625 1.460938 0 0.953125 -0.3125 C 0.441406 -0.625 0.1875 -0.925781 0.1875 -1.21875 C 0.332031 -1.5625 0.609375 -1.9375 1.015625 -2.34375 C 1.421875 -2.75 1.789062 -2.960938 2.125 -2.984375 C 2.351562 -2.878906 2.5625 -2.628906 2.75 -2.234375 C 2.945312 -1.847656 3.101562 -1.398438 3.21875 -0.890625 C 3.707031 -0.910156 3.953125 -1.1875 3.953125 -1.71875 C 3.953125 -2.0625 3.816406 -2.488281 3.546875 -3 C 3.285156 -3.507812 3 -3.984375 2.6875 -4.421875 C 2.375 -4.859375 2.082031 -5.347656 1.8125 -5.890625 C 1.550781 -6.429688 1.421875 -6.90625 1.421875 -7.3125 C 1.421875 -7.976562 1.722656 -8.519531 2.328125 -8.9375 C 2.941406 -9.363281 3.625 -9.578125 4.375 -9.578125 C 5.125 -9.578125 5.707031 -9.414062 6.125 -9.09375 C 6.539062 -8.769531 6.75 -8.394531 6.75 -7.96875 C 6.75 -7.613281 6.675781 -7.332031 6.53125 -7.125 C 6.394531 -6.914062 6.28125 -6.753906 6.1875 -6.640625 C 6.101562 -6.523438 5.992188 -6.40625 5.859375 -6.28125 C 5.585938 -6.050781 5.378906 -5.878906 5.234375 -5.765625 L 5.03125 -5.625 C 5.5625 -4.96875 5.960938 -4.203125 6.234375 -3.328125 C 6.328125 -3.015625 6.375 -2.726562 6.375 -2.46875 Z M 5.671875 -7.875 C 5.671875 -8.300781 5.40625 -8.515625 4.875 -8.515625 C 4.550781 -8.515625 4.289062 -8.445312 4.09375 -8.3125 C 3.90625 -8.175781 3.8125 -8.003906 3.8125 -7.796875 C 3.8125 -7.597656 3.894531 -7.351562 4.0625 -7.0625 C 4.226562 -6.78125 4.363281 -6.578125 4.46875 -6.453125 C 4.675781 -6.566406 4.925781 -6.765625 5.21875 -7.046875 C 5.519531 -7.335938 5.671875 -7.613281 5.671875 -7.875 Z M 5.671875 -7.875 "/></g></g></g><g fill="#ffca1d" fill-opacity="1"><g transform="translate(146.547458, 300.485517)"><g><path d="M 3.296875 -1.71875 C 3.296875 -1.457031 3.359375 -1.328125 3.484375 -1.328125 C 3.679688 -1.328125 3.921875 -1.390625 4.203125 -1.515625 L 4.5 -0.75 C 3.675781 -0.144531 2.878906 0.15625 2.109375 0.15625 C 1.648438 0.15625 1.289062 0.03125 1.03125 -0.21875 C 0.769531 -0.476562 0.640625 -0.84375 0.640625 -1.3125 C 0.640625 -1.78125 0.867188 -2.835938 1.328125 -4.484375 C 1.785156 -6.128906 2.035156 -7.273438 2.078125 -7.921875 C 2.078125 -8.078125 2.023438 -8.242188 1.921875 -8.421875 C 1.828125 -8.609375 1.734375 -8.753906 1.640625 -8.859375 L 1.5 -9.015625 L 1.53125 -9.296875 C 2.09375 -9.484375 3.09375 -9.578125 4.53125 -9.578125 C 4.675781 -9.304688 4.75 -9.019531 4.75 -8.71875 C 4.75 -8.1875 4.503906 -7.046875 4.015625 -5.296875 C 3.535156 -3.546875 3.296875 -2.351562 3.296875 -1.71875 Z M 3.296875 -1.71875 "/></g></g></g><g fill="#ffca1d" fill-opacity="1"><g transform="translate(151.412467, 300.485517)"><g><path d="M 4.28125 -3.546875 C 4.019531 -3.546875 3.832031 -3.550781 3.71875 -3.5625 C 3.363281 -1.925781 3.1875 -0.828125 3.1875 -0.265625 C 2.675781 -0.0351562 2.015625 0.078125 1.203125 0.078125 C 0.972656 0.078125 0.753906 0.0664062 0.546875 0.046875 C 0.546875 -0.523438 0.789062 -1.84375 1.28125 -3.90625 C 1.78125 -5.96875 2.03125 -7.242188 2.03125 -7.734375 C 2.03125 -7.890625 1.976562 -8.066406 1.875 -8.265625 C 1.769531 -8.460938 1.664062 -8.617188 1.5625 -8.734375 L 1.421875 -8.921875 L 1.46875 -9.25 C 1.8125 -9.3125 2.390625 -9.378906 3.203125 -9.453125 C 4.015625 -9.535156 4.765625 -9.578125 5.453125 -9.578125 C 6.453125 -9.578125 7.195312 -9.367188 7.6875 -8.953125 C 8.175781 -8.535156 8.421875 -7.976562 8.421875 -7.28125 C 8.421875 -6.195312 8.070312 -5.300781 7.375 -4.59375 C 6.675781 -3.894531 5.644531 -3.546875 4.28125 -3.546875 Z M 4.25 -4.703125 C 4.75 -4.703125 5.132812 -4.988281 5.40625 -5.5625 C 5.6875 -6.144531 5.828125 -6.835938 5.828125 -7.640625 C 5.828125 -8.296875 5.609375 -8.625 5.171875 -8.625 L 4.75 -8.578125 C 4.75 -8.222656 4.492188 -6.929688 3.984375 -4.703125 Z M 4.25 -4.703125 "/></g></g></g><g fill="#ffca1d" fill-opacity="1"><g transform="translate(159.269259, 300.485517)"><g><path d="M 1.46875 -2.171875 C 2.039062 -2.066406 2.460938 -1.863281 2.734375 -1.5625 C 3.015625 -1.269531 3.15625 -0.921875 3.15625 -0.515625 C 3.15625 -0.117188 2.957031 0.398438 2.5625 1.046875 C 2.164062 1.703125 1.796875 2.207031 1.453125 2.5625 L 0.765625 2.140625 C 1.171875 1.523438 1.414062 0.96875 1.5 0.46875 L 0.4375 -0.25 C 0.4375 -0.613281 0.53125 -0.96875 0.71875 -1.3125 C 0.914062 -1.664062 1.164062 -1.953125 1.46875 -2.171875 Z M 1.46875 -2.171875 "/></g></g></g><g fill="#ffca1d" fill-opacity="1"><g transform="translate(162.705759, 300.485517)"><g><path d="M 5.21875 0.328125 C 4.84375 0.328125 4.289062 0.128906 3.5625 -0.265625 C 2.84375 -0.660156 2.425781 -0.875 2.3125 -0.90625 C 1.769531 -0.195312 1.265625 0.15625 0.796875 0.15625 C 0.671875 0.15625 0.484375 -0.015625 0.234375 -0.359375 C -0.015625 -0.710938 -0.140625 -1.039062 -0.140625 -1.34375 C -0.140625 -1.476562 -0.00390625 -1.644531 0.265625 -1.84375 C 0.546875 -2.050781 0.867188 -2.195312 1.234375 -2.28125 C 1.472656 -2.84375 1.710938 -3.695312 1.953125 -4.84375 C 2.191406 -6 2.3125 -7.015625 2.3125 -7.890625 C 2.3125 -8.035156 2.257812 -8.195312 2.15625 -8.375 C 2.0625 -8.550781 1.972656 -8.695312 1.890625 -8.8125 L 1.734375 -8.96875 L 1.78125 -9.234375 C 2.269531 -9.460938 3.296875 -9.578125 4.859375 -9.578125 C 4.992188 -9.347656 5.0625 -8.960938 5.0625 -8.421875 C 5.0625 -7.890625 4.820312 -6.957031 4.34375 -5.625 C 3.875 -4.289062 3.398438 -3.132812 2.921875 -2.15625 C 3.828125 -1.925781 4.6875 -1.8125 5.5 -1.8125 C 5.6875 -1.8125 5.84375 -1.851562 5.96875 -1.9375 C 6.09375 -2.03125 6.222656 -2.222656 6.359375 -2.515625 L 7.109375 -2.25 C 6.960938 -1.394531 6.742188 -0.75 6.453125 -0.3125 C 6.160156 0.113281 5.75 0.328125 5.21875 0.328125 Z M 5.21875 0.328125 "/></g></g></g><g fill="#ffca1d" fill-opacity="1"><g transform="translate(169.767439, 300.485517)"><g><path d="M 3.296875 -1.71875 C 3.296875 -1.457031 3.359375 -1.328125 3.484375 -1.328125 C 3.679688 -1.328125 3.921875 -1.390625 4.203125 -1.515625 L 4.5 -0.75 C 3.675781 -0.144531 2.878906 0.15625 2.109375 0.15625 C 1.648438 0.15625 1.289062 0.03125 1.03125 -0.21875 C 0.769531 -0.476562 0.640625 -0.84375 0.640625 -1.3125 C 0.640625 -1.78125 0.867188 -2.835938 1.328125 -4.484375 C 1.785156 -6.128906 2.035156 -7.273438 2.078125 -7.921875 C 2.078125 -8.078125 2.023438 -8.242188 1.921875 -8.421875 C 1.828125 -8.609375 1.734375 -8.753906 1.640625 -8.859375 L 1.5 -9.015625 L 1.53125 -9.296875 C 2.09375 -9.484375 3.09375 -9.578125 4.53125 -9.578125 C 4.675781 -9.304688 4.75 -9.019531 4.75 -8.71875 C 4.75 -8.1875 4.503906 -7.046875 4.015625 -5.296875 C 3.535156 -3.546875 3.296875 -2.351562 3.296875 -1.71875 Z M 3.296875 -1.71875 "/></g></g></g><g fill="#ffca1d" fill-opacity="1"><g transform="translate(174.632448, 300.485517)"><g><path d="M 3.90625 0.15625 C 2.9375 0.15625 2.148438 -0.191406 1.546875 -0.890625 C 0.941406 -1.585938 0.640625 -2.570312 0.640625 -3.84375 C 0.640625 -4.851562 0.835938 -5.789062 1.234375 -6.65625 C 1.628906 -7.53125 2.195312 -8.234375 2.9375 -8.765625 C 3.675781 -9.304688 4.472656 -9.578125 5.328125 -9.578125 C 6.191406 -9.578125 6.90625 -9.40625 7.46875 -9.0625 C 8.03125 -8.71875 8.3125 -8.269531 8.3125 -7.71875 C 8.3125 -7.164062 8.15625 -6.726562 7.84375 -6.40625 C 7.488281 -6.40625 7.078125 -6.476562 6.609375 -6.625 C 6.140625 -6.769531 5.789062 -6.941406 5.5625 -7.140625 L 5.8125 -8.453125 C 5.625 -8.546875 5.441406 -8.59375 5.265625 -8.59375 C 4.742188 -8.59375 4.285156 -8.140625 3.890625 -7.234375 C 3.492188 -6.328125 3.296875 -5.269531 3.296875 -4.0625 C 3.296875 -2.238281 3.804688 -1.328125 4.828125 -1.328125 C 5.441406 -1.328125 6.125 -1.660156 6.875 -2.328125 L 7.515625 -1.703125 C 7.441406 -1.585938 7.253906 -1.394531 6.953125 -1.125 C 6.660156 -0.863281 6.378906 -0.648438 6.109375 -0.484375 C 5.847656 -0.328125 5.515625 -0.179688 5.109375 -0.046875 C 4.710938 0.0859375 4.3125 0.15625 3.90625 0.15625 Z M 3.90625 0.15625 "/></g></g></g><g fill="#ffca1d" fill-opacity="1"><g transform="translate(182.421857, 300.485517)"><g><path d="M 3.203125 -0.265625 C 2.765625 -0.0351562 2.132812 0.078125 1.3125 0.078125 C 1.050781 0.078125 0.796875 0.0625 0.546875 0.03125 C 0.546875 -0.445312 0.796875 -1.695312 1.296875 -3.71875 C 1.796875 -5.738281 2.046875 -7.101562 2.046875 -7.8125 C 2.046875 -7.988281 2 -8.175781 1.90625 -8.375 C 1.820312 -8.582031 1.734375 -8.738281 1.640625 -8.84375 L 1.5 -9.015625 L 1.546875 -9.296875 C 2.191406 -9.484375 3.195312 -9.578125 4.5625 -9.578125 C 4.6875 -9.328125 4.75 -9.003906 4.75 -8.609375 C 4.75 -8.222656 4.5625 -7.15625 4.1875 -5.40625 L 4.265625 -5.40625 C 4.910156 -5.40625 5.394531 -5.695312 5.71875 -6.28125 C 6.050781 -6.875 6.304688 -7.847656 6.484375 -9.203125 C 7.285156 -9.453125 8.078125 -9.578125 8.859375 -9.578125 C 8.878906 -9.503906 8.882812 -9.304688 8.875 -8.984375 C 8.863281 -8.671875 8.78125 -8.25 8.625 -7.71875 C 8.46875 -7.1875 8.1875 -6.640625 7.78125 -6.078125 C 7.375 -5.515625 6.878906 -5.082031 6.296875 -4.78125 C 6.984375 -2.425781 7.515625 -1.25 7.890625 -1.25 C 8.035156 -1.25 8.265625 -1.304688 8.578125 -1.421875 L 8.71875 -1.46875 L 9.046875 -0.734375 C 8.210938 -0.140625 7.367188 0.15625 6.515625 0.15625 C 5.660156 0.15625 5.097656 -0.28125 4.828125 -1.15625 C 4.554688 -2.0625 4.351562 -3.117188 4.21875 -4.328125 L 3.9375 -4.328125 C 3.445312 -2.128906 3.203125 -0.773438 3.203125 -0.265625 Z M 3.203125 -0.265625 "/></g></g></g><g fill="#ffca1d" fill-opacity="1"><g transform="translate(191.208527, 300.485517)"><g><path d="M 1.46875 -2.171875 C 2.039062 -2.066406 2.460938 -1.863281 2.734375 -1.5625 C 3.015625 -1.269531 3.15625 -0.921875 3.15625 -0.515625 C 3.15625 -0.117188 2.957031 0.398438 2.5625 1.046875 C 2.164062 1.703125 1.796875 2.207031 1.453125 2.5625 L 0.765625 2.140625 C 1.171875 1.523438 1.414062 0.96875 1.5 0.46875 L 0.4375 -0.25 C 0.4375 -0.613281 0.53125 -0.96875 0.71875 -1.3125 C 0.914062 -1.664062 1.164062 -1.953125 1.46875 -2.171875 Z M 1.46875 -2.171875 "/></g></g></g><g fill="#ffca1d" fill-opacity="1"><g transform="translate(194.645027, 300.485517)"><g><path d="M 3.640625 0.171875 C 2.503906 0.171875 1.632812 -0.191406 1.03125 -0.921875 C 0.695312 -1.316406 0.53125 -1.796875 0.53125 -2.359375 C 0.53125 -3.117188 0.796875 -3.742188 1.328125 -4.234375 C 1.867188 -4.722656 2.507812 -5.007812 3.25 -5.09375 C 2.113281 -5.40625 1.546875 -6.054688 1.546875 -7.046875 C 1.546875 -7.828125 1.878906 -8.441406 2.546875 -8.890625 C 3.210938 -9.347656 3.96875 -9.578125 4.8125 -9.578125 C 5.664062 -9.578125 6.375 -9.398438 6.9375 -9.046875 C 7.507812 -8.691406 7.796875 -8.226562 7.796875 -7.65625 C 7.796875 -7.320312 7.707031 -7.007812 7.53125 -6.71875 L 7.4375 -6.5625 C 7.0625 -6.5625 6.660156 -6.617188 6.234375 -6.734375 C 5.816406 -6.847656 5.5 -6.992188 5.28125 -7.171875 L 5.421875 -8.546875 C 5.285156 -8.609375 5.148438 -8.640625 5.015625 -8.640625 C 4.734375 -8.640625 4.519531 -8.488281 4.375 -8.1875 C 4.226562 -7.894531 4.15625 -7.550781 4.15625 -7.15625 C 4.15625 -6.757812 4.195312 -6.441406 4.28125 -6.203125 C 4.363281 -5.972656 4.5 -5.796875 4.6875 -5.671875 C 4.875 -5.554688 5.035156 -5.472656 5.171875 -5.421875 C 5.304688 -5.378906 5.503906 -5.328125 5.765625 -5.265625 L 5.65625 -4.484375 C 5.03125 -4.484375 4.457031 -4.304688 3.9375 -3.953125 C 3.414062 -3.609375 3.15625 -3.140625 3.15625 -2.546875 C 3.15625 -2.128906 3.289062 -1.820312 3.5625 -1.625 C 3.832031 -1.425781 4.148438 -1.328125 4.515625 -1.328125 C 4.890625 -1.328125 5.285156 -1.421875 5.703125 -1.609375 C 6.117188 -1.804688 6.472656 -2.046875 6.765625 -2.328125 L 7.375 -1.71875 C 6.988281 -1.195312 6.453125 -0.75 5.765625 -0.375 C 5.085938 -0.0078125 4.378906 0.171875 3.640625 0.171875 Z M 3.640625 0.171875 "/></g></g></g><g fill="#ffca1d" fill-opacity="1"><g transform="translate(201.989719, 300.485517)"><g><path d="M 0.78125 0.078125 L 0.546875 0.078125 C 0.546875 -0.460938 0.796875 -1.835938 1.296875 -4.046875 C 1.804688 -6.253906 2.0625 -7.535156 2.0625 -7.890625 C 2.0625 -8.046875 2.015625 -8.21875 1.921875 -8.40625 C 1.828125 -8.59375 1.734375 -8.738281 1.640625 -8.84375 L 1.515625 -9.015625 L 1.546875 -9.296875 C 2.109375 -9.484375 3.082031 -9.578125 4.46875 -9.578125 C 4.625 -9.234375 4.703125 -8.847656 4.703125 -8.421875 L 4.703125 -8.390625 C 5.785156 -9.179688 6.726562 -9.578125 7.53125 -9.578125 C 8.007812 -9.578125 8.398438 -9.429688 8.703125 -9.140625 C 9.015625 -8.859375 9.171875 -8.453125 9.171875 -7.921875 C 9.171875 -7.398438 8.960938 -6.34375 8.546875 -4.75 C 8.128906 -3.164062 7.921875 -2.195312 7.921875 -1.84375 C 7.921875 -1.5 7.984375 -1.328125 8.109375 -1.328125 C 8.265625 -1.328125 8.503906 -1.390625 8.828125 -1.515625 L 9.109375 -0.734375 C 8.234375 -0.140625 7.414062 0.15625 6.65625 0.15625 C 6.226562 0.15625 5.898438 0.0390625 5.671875 -0.1875 C 5.441406 -0.414062 5.328125 -0.789062 5.328125 -1.3125 C 5.328125 -1.84375 5.519531 -2.851562 5.90625 -4.34375 C 6.300781 -5.832031 6.5 -6.757812 6.5 -7.125 C 6.5 -7.582031 6.296875 -7.8125 5.890625 -7.8125 C 5.597656 -7.8125 5.15625 -7.625 4.5625 -7.25 C 4.476562 -6.820312 4.304688 -6.078125 4.046875 -5.015625 C 3.472656 -2.597656 3.1875 -1.015625 3.1875 -0.265625 C 2.789062 -0.0351562 1.988281 0.078125 0.78125 0.078125 Z M 0.78125 0.078125 "/></g></g></g><g fill="#ffca1d" fill-opacity="1"><g transform="translate(211.27502, 300.485517)"><g><path d="M 2.625 -9.5625 L 5.5 -9.53125 L 6.75 -9.5625 C 6.769531 -9.363281 6.78125 -9.148438 6.78125 -8.921875 C 6.78125 -8.703125 6.734375 -8.546875 6.640625 -8.453125 C 6.546875 -8.367188 6.375 -8.328125 6.125 -8.328125 C 5.882812 -8.328125 5.6875 -8.332031 5.53125 -8.34375 C 5.1875 -4.832031 4.847656 -2.617188 4.515625 -1.703125 C 4.222656 -0.890625 3.832031 -0.347656 3.34375 -0.078125 C 3.039062 0.0859375 2.675781 0.171875 2.25 0.171875 C 1.820312 0.171875 1.367188 0.0507812 0.890625 -0.1875 C 0.410156 -0.4375 0.03125 -0.726562 -0.25 -1.0625 L 0.25 -1.75 C 0.351562 -1.664062 0.519531 -1.566406 0.75 -1.453125 C 0.976562 -1.347656 1.175781 -1.296875 1.34375 -1.296875 C 1.507812 -1.296875 1.664062 -1.382812 1.8125 -1.5625 C 2.132812 -1.988281 2.414062 -3.128906 2.65625 -4.984375 C 2.820312 -6.265625 2.90625 -7.34375 2.90625 -8.21875 L 2.90625 -8.4375 C 2.289062 -8.425781 1.828125 -8.367188 1.515625 -8.265625 C 1.390625 -8.640625 1.316406 -9.019531 1.296875 -9.40625 C 1.492188 -9.507812 1.9375 -9.5625 2.625 -9.5625 Z M 2.625 -9.5625 "/></g></g></g><g fill="#ffca1d" fill-opacity="1"><g transform="translate(217.16424, 300.485517)"><g><path d="M 8.3125 -8.375 C 8.570312 -8.007812 8.765625 -7.625 8.890625 -7.21875 C 9.015625 -6.820312 9.078125 -6.34375 9.078125 -5.78125 C 9.078125 -5.226562 8.976562 -4.609375 8.78125 -3.921875 C 8.59375 -3.242188 8.304688 -2.59375 7.921875 -1.96875 C 7.535156 -1.34375 7.003906 -0.832031 6.328125 -0.4375 C 5.660156 -0.0390625 4.894531 0.15625 4.03125 0.15625 C 2.976562 0.15625 2.148438 -0.195312 1.546875 -0.90625 C 0.941406 -1.613281 0.640625 -2.503906 0.640625 -3.578125 C 0.640625 -4.660156 0.84375 -5.648438 1.25 -6.546875 C 1.664062 -7.441406 2.253906 -8.171875 3.015625 -8.734375 C 3.773438 -9.296875 4.625 -9.578125 5.5625 -9.578125 C 6.1875 -9.578125 6.734375 -9.46875 7.203125 -9.25 C 7.679688 -9.03125 8.050781 -8.738281 8.3125 -8.375 Z M 3.796875 -1.046875 C 3.953125 -0.921875 4.1875 -0.859375 4.5 -0.859375 C 4.8125 -0.859375 5.101562 -1.039062 5.375 -1.40625 C 5.644531 -1.769531 5.859375 -2.238281 6.015625 -2.8125 C 6.304688 -3.945312 6.453125 -5.125 6.453125 -6.34375 C 6.453125 -7.8125 6.085938 -8.546875 5.359375 -8.546875 C 5.023438 -8.546875 4.71875 -8.382812 4.4375 -8.0625 C 4.164062 -7.75 3.953125 -7.335938 3.796875 -6.828125 C 3.460938 -5.785156 3.296875 -4.664062 3.296875 -3.46875 C 3.296875 -2.125 3.460938 -1.316406 3.796875 -1.046875 Z M 3.796875 -1.046875 "/></g></g></g><g fill="#ffca1d" fill-opacity="1"><g transform="translate(226.260874, 300.485517)"><g><path d="M 5.125 2.390625 C 4.738281 2.648438 4.394531 2.816406 4.09375 2.890625 C 3.789062 2.972656 3.457031 3.015625 3.09375 3.015625 C 2.726562 3.015625 2.394531 2.894531 2.09375 2.65625 C 1.789062 2.414062 1.640625 2.117188 1.640625 1.765625 C 1.640625 1.410156 1.726562 1.109375 1.90625 0.859375 C 2.082031 0.617188 2.335938 0.414062 2.671875 0.25 C 3.253906 -0.0625 3.988281 -0.3125 4.875 -0.5 C 4.9375 -0.644531 5.039062 -0.972656 5.1875 -1.484375 C 4.832031 -1.296875 4.378906 -1.117188 3.828125 -0.953125 C 3.285156 -0.796875 2.800781 -0.71875 2.375 -0.71875 C 1.957031 -0.71875 1.601562 -0.859375 1.3125 -1.140625 C 1.019531 -1.421875 0.875 -1.8125 0.875 -2.3125 C 0.875 -2.8125 1.035156 -3.71875 1.359375 -5.03125 C 1.691406 -6.351562 1.859375 -7.296875 1.859375 -7.859375 C 1.859375 -8.035156 1.8125 -8.21875 1.71875 -8.40625 C 1.632812 -8.601562 1.546875 -8.757812 1.453125 -8.875 L 1.328125 -9.03125 L 1.375 -9.296875 C 1.9375 -9.484375 2.898438 -9.578125 4.265625 -9.578125 C 4.429688 -9.273438 4.515625 -8.875 4.515625 -8.375 C 4.515625 -7.875 4.34375 -6.914062 4 -5.5 C 3.664062 -4.09375 3.5 -3.257812 3.5 -3 C 3.5 -2.550781 3.65625 -2.328125 3.96875 -2.328125 C 4.394531 -2.328125 4.910156 -2.488281 5.515625 -2.8125 C 5.804688 -4.070312 6.054688 -5.304688 6.265625 -6.515625 C 6.472656 -7.734375 6.578125 -8.617188 6.578125 -9.171875 C 6.867188 -9.285156 7.253906 -9.378906 7.734375 -9.453125 C 8.222656 -9.523438 8.625 -9.5625 8.9375 -9.5625 L 9.234375 -9.5625 C 9.234375 -8.863281 9.050781 -7.644531 8.6875 -5.90625 C 8.550781 -5.300781 8.351562 -4.40625 8.09375 -3.21875 C 7.84375 -2.039062 7.550781 -1.082031 7.21875 -0.34375 C 6.894531 0.394531 6.5625 0.96875 6.21875 1.375 C 5.882812 1.789062 5.519531 2.128906 5.125 2.390625 Z M 2.640625 1.53125 C 2.640625 1.726562 2.769531 1.828125 3.03125 1.828125 C 3.289062 1.828125 3.578125 1.675781 3.890625 1.375 C 4.210938 1.070312 4.441406 0.757812 4.578125 0.4375 C 4.054688 0.519531 3.601562 0.660156 3.21875 0.859375 C 2.832031 1.066406 2.640625 1.289062 2.640625 1.53125 Z M 2.640625 1.53125 "/></g></g></g></svg>